<svg width="287" height="69" viewBox="0 0 287 69" fill="none" xmlns="http://www.w3.org/2000/svg">
<path d="M41.6 21.57L52.47 29.6V48.14L41.6 41.79V21.57Z" fill="#E8F1F5" stroke="#004A7C" stroke-miterlimit="10"/>
<path d="M13.39 37.68V57.81L2 49.78V31.56L13.39 37.68Z" fill="#E8F1F5" stroke="#004A7C" stroke-miterlimit="10"/>
<path d="M18.83 67.38L52.47 48.14L41.6 41.79L13.39 57.81L18.83 67.38Z" fill="#E8F1F5" stroke="#004A7C" stroke-miterlimit="10"/>
<path d="M41.6 21.57L35.65 12L2 31.56L13.39 37.68L41.6 21.57Z" fill="#E8F1F5" stroke="#004A7C" stroke-miterlimit="10"/>
<path d="M61.584 39.704C61.584 36.952 62.144 34.552 63.264 32.504C64.384 30.424 65.936 28.824 67.92 27.704C69.904 26.552 72.176 25.976 74.736 25.976C78.032 25.976 80.752 26.808 82.896 28.472C85.072 30.104 86.528 32.408 87.264 35.384H80.016C79.632 34.232 78.976 33.336 78.048 32.696C77.152 32.024 76.032 31.688 74.688 31.688C72.768 31.688 71.248 32.392 70.128 33.8C69.008 35.176 68.448 37.144 68.448 39.704C68.448 42.232 69.008 44.2 70.128 45.608C71.248 46.984 72.768 47.672 74.688 47.672C77.408 47.672 79.184 46.456 80.016 44.024H87.264C86.528 46.904 85.072 49.192 82.896 50.888C80.72 52.584 78 53.432 74.736 53.432C72.176 53.432 69.904 52.872 67.92 51.752C65.936 50.6 64.384 49 63.264 46.952C62.144 44.872 61.584 42.456 61.584 39.704ZM90.459 39.608C90.459 36.92 90.987 34.536 92.043 32.456C93.131 30.376 94.587 28.776 96.411 27.656C98.267 26.536 100.331 25.976 102.603 25.976C104.587 25.976 106.315 26.376 107.787 27.176C109.291 27.976 110.491 28.984 111.387 30.2V26.408H118.155V53H111.387V49.112C110.523 50.36 109.323 51.4 107.787 52.232C106.283 53.032 104.539 53.432 102.555 53.432C100.315 53.432 98.267 52.856 96.411 51.704C94.587 50.552 93.131 48.936 92.043 46.856C90.987 44.744 90.459 42.328 90.459 39.608ZM111.387 39.704C111.387 38.072 111.067 36.68 110.427 35.528C109.787 34.344 108.923 33.448 107.835 32.84C106.747 32.2 105.579 31.88 104.331 31.88C103.083 31.88 101.931 32.184 100.875 32.792C99.819 33.4 98.955 34.296 98.283 35.48C97.643 36.632 97.323 38.008 97.323 39.608C97.323 41.208 97.643 42.616 98.283 43.832C98.955 45.016 99.819 45.928 100.875 46.568C101.963 47.208 103.115 47.528 104.331 47.528C105.579 47.528 106.747 47.224 107.835 46.616C108.923 45.976 109.787 45.08 110.427 43.928C111.067 42.744 111.387 41.336 111.387 39.704ZM157.742 26.024C161.006 26.024 163.63 27.032 165.614 29.048C167.63 31.032 168.638 33.816 168.638 37.4V53H161.918V38.312C161.918 36.232 161.39 34.648 160.334 33.56C159.278 32.44 157.838 31.88 156.014 31.88C154.19 31.88 152.734 32.44 151.646 33.56C150.59 34.648 150.062 36.232 150.062 38.312V53H143.342V38.312C143.342 36.232 142.814 34.648 141.758 33.56C140.702 32.44 139.262 31.88 137.438 31.88C135.582 31.88 134.11 32.44 133.022 33.56C131.966 34.648 131.438 36.232 131.438 38.312V53H124.718V26.408H131.438V29.624C132.302 28.504 133.406 27.624 134.75 26.984C136.126 26.344 137.63 26.024 139.262 26.024C141.342 26.024 143.198 26.472 144.83 27.368C146.462 28.232 147.726 29.48 148.622 31.112C149.486 29.576 150.734 28.344 152.366 27.416C154.03 26.488 155.822 26.024 157.742 26.024ZM182.839 31.928V44.792C182.839 45.688 183.047 46.344 183.463 46.76C183.911 47.144 184.647 47.336 185.671 47.336H188.791V53H184.567C178.903 53 176.071 50.248 176.071 44.744V31.928H172.903V26.408H176.071V19.832H182.839V26.408H188.791V31.928H182.839ZM205.433 53.432C202.873 53.432 200.569 52.872 198.521 51.752C196.473 50.6 194.857 48.984 193.673 46.904C192.521 44.824 191.945 42.424 191.945 39.704C191.945 36.984 192.537 34.584 193.721 32.504C194.937 30.424 196.585 28.824 198.665 27.704C200.745 26.552 203.065 25.976 205.625 25.976C208.185 25.976 210.505 26.552 212.585 27.704C214.665 28.824 216.297 30.424 217.481 32.504C218.697 34.584 219.305 36.984 219.305 39.704C219.305 42.424 218.681 44.824 217.432 46.904C216.217 48.984 214.553 50.6 212.441 51.752C210.361 52.872 208.025 53.432 205.433 53.432ZM205.433 47.576C206.649 47.576 207.785 47.288 208.841 46.712C209.929 46.104 210.793 45.208 211.433 44.024C212.073 42.84 212.393 41.4 212.393 39.704C212.393 37.176 211.721 35.24 210.377 33.896C209.065 32.52 207.449 31.832 205.529 31.832C203.609 31.832 201.993 32.52 200.681 33.896C199.401 35.24 198.761 37.176 198.761 39.704C198.761 42.232 199.385 44.184 200.633 45.56C201.913 46.904 203.513 47.576 205.433 47.576ZM257.258 26.024C260.522 26.024 263.146 27.032 265.13 29.048C267.146 31.032 268.154 33.816 268.154 37.4V53H261.434V38.312C261.434 36.232 260.906 34.648 259.85 33.56C258.794 32.44 257.354 31.88 255.53 31.88C253.706 31.88 252.25 32.44 251.162 33.56C250.106 34.648 249.578 36.232 249.578 38.312V53H242.858V38.312C242.858 36.232 242.33 34.648 241.274 33.56C240.218 32.44 238.778 31.88 236.954 31.88C235.098 31.88 233.626 32.44 232.538 33.56C231.482 34.648 230.954 36.232 230.954 38.312V53H224.234V26.408H230.954V29.624C231.818 28.504 232.922 27.624 234.266 26.984C235.642 26.344 237.146 26.024 238.778 26.024C240.858 26.024 242.714 26.472 244.346 27.368C245.978 28.232 247.242 29.48 248.138 31.112C249.002 29.576 250.25 28.344 251.882 27.416C253.546 26.488 255.338 26.024 257.258 26.024Z" fill="#E8F1F5"/>
</svg>
